HIERARCHY
ROOT hip
{
  OFFSET 0 0 0
  CHANNELS 6 Xposition Yposition Zposition Zrotation Yrotation Xrotation
  JOINT abdomen
  {
    OFFSET 0 20.6881 -0.73152
    CHANNELS 3 Zrotation Xrotation Yrotation
    JOINT chest
    {
      OFFSET 0 11.7043 -0.48768
      CHANNELS 3 Zrotation Xrotation Yrotation
      JOINT neck
      {
        OFFSET 0 22.1894 -2.19456
        CHANNELS 3 Zrotation Xrotation Yrotation
        JOINT head
        {
          OFFSET -0.24384 7.07133 1.2192
          CHANNELS 3 Zrotation Xrotation Yrotation
          JOINT leftEye
          {
            OFFSET 4.14528 8.04674 8.04672
            CHANNELS 3 Zrotation Xrotation Yrotation
            End Site
            {
              OFFSET 1 0 0
            }
          }
          JOINT rightEye
          {
            OFFSET -3.6576 8.04674 8.04672
            CHANNELS 3 Zrotation Xrotation Yrotation
            End Site
            {
              OFFSET 1 0 0
            }
          }
        }
      }
      JOINT rCollar
      {
        OFFSET -2.68224 19.2634 -4.8768
        CHANNELS 3 Zrotation Xrotation Yrotation
        JOINT rShldr
        {
          OFFSET -8.77824 -1.95073 1.46304
          CHANNELS 3 Zrotation Xrotation Yrotation
          JOINT rForeArm
          {
            OFFSET -28.1742 -1.7115 0.48768
            CHANNELS 3 Zrotation Xrotation Yrotation
            JOINT rHand
            {
              OFFSET -22.5879 0.773209 7.07136
              CHANNELS 3 Zrotation Xrotation Yrotation
              JOINT rThumb1
              {
                OFFSET -1.2192 -0.487915 3.41376
                CHANNELS 3 Zrotation Xrotation Yrotation
                JOINT rThumb2
                {
                  OFFSET -3.37035 -0.52449 3.41376
                  CHANNELS 3 Zrotation Xrotation Yrotation
                  End Site
                  {
                    OFFSET -1.78271 -1.18214 1.43049
                  }
                }
              }
              JOINT rIndex1
              {
                OFFSET -7.75947 0.938293 5.60832
                CHANNELS 3 Zrotation Xrotation Yrotation
                JOINT rIndex2
                {
                  OFFSET -2.54057 -0.884171 1.56538
                  CHANNELS 3 Zrotation Xrotation Yrotation
                  End Site
                  {
                    OFFSET -1.62519 -0.234802 1.16502
                  }
                }
              }
              JOINT rMid1
              {
                OFFSET -8.24714 1.18213 3.41376
                CHANNELS 3 Zrotation Xrotation Yrotation
                JOINT rMid2
                {
                  OFFSET -3.10165 -0.590103 1.0647
                  CHANNELS 3 Zrotation Xrotation Yrotation
                  End Site
                  {
                    OFFSET -2.48547 -0.328903 0.83742
                  }
                }
              }
              JOINT rRing1
              {
                OFFSET -8.82822 0.546677 1.51678
                CHANNELS 3 Zrotation Xrotation Yrotation
                JOINT rRing2
                {
                  OFFSET -2.60934 -0.819778 -0.0198488
                  CHANNELS 3 Zrotation Xrotation Yrotation
                  End Site
                  {
                    OFFSET -2.33842 -0.294052 0.168128
                  }
                }
              }
              JOINT rPinky1
              {
                OFFSET -8.27202 -0.0477905 -0.4584
                CHANNELS 3 Zrotation Xrotation Yrotation
                JOINT rPinky2
                {
                  OFFSET -1.82734 -0.647385 -0.700984
                  CHANNELS 3 Zrotation Xrotation Yrotation
                  End Site
                  {
                    OFFSET -1.69225 -0.51767 -0.607171
                  }
                }
              }
            }
          }
        }
      }
      JOINT lCollar
      {
        OFFSET 2.68224 19.2634 -4.8768
        CHANNELS 3 Zrotation Xrotation Yrotation
        JOINT lShldr
        {
          OFFSET 8.77824 -1.95073 1.46304
          CHANNELS 3 Zrotation Xrotation Yrotation
          JOINT lForeArm
          {
            OFFSET 28.1742 -1.7115 0.48768
            CHANNELS 3 Zrotation Xrotation Yrotation
            JOINT lHand
            {
              OFFSET 22.5879 0.773209 7.07136
              CHANNELS 3 Zrotation Xrotation Yrotation
              JOINT lThumb1
              {
                OFFSET 1.2192 -0.487915 3.41376
                CHANNELS 3 Zrotation Xrotation Yrotation
                JOINT lThumb2
                {
                  OFFSET 3.37035 -0.52449 3.41376
                  CHANNELS 3 Zrotation Xrotation Yrotation
                  End Site
                  {
                    OFFSET 1.78271 -1.18214 1.43049
                  }
                }
              }
              JOINT lIndex1
              {
                OFFSET 7.75947 0.938293 5.60832
                CHANNELS 3 Zrotation Xrotation Yrotation
                JOINT lIndex2
                {
                  OFFSET 2.54057 -0.884171 1.56538
                  CHANNELS 3 Zrotation Xrotation Yrotation
                  End Site
                  {
                    OFFSET 1.62519 -0.234802 1.16502
                  }
                }
              }
              JOINT lMid1
              {
                OFFSET 8.24714 1.18213 3.41376
                CHANNELS 3 Zrotation Xrotation Yrotation
                JOINT lMid2
                {
                  OFFSET 3.10165 -0.590103 1.0647
                  CHANNELS 3 Zrotation Xrotation Yrotation
                  End Site
                  {
                    OFFSET 2.48547 -0.328903 0.83742
                  }
                }
              }
              JOINT lRing1
              {
                OFFSET 8.82822 0.546677 1.51678
                CHANNELS 3 Zrotation Xrotation Yrotation
                JOINT lRing2
                {
                  OFFSET 2.60934 -0.819778 -0.0198488
                  CHANNELS 3 Zrotation Xrotation Yrotation
                  End Site
                  {
                    OFFSET 2.33842 -0.294052 0.168128
                  }
                }
              }
              JOINT lPinky1
              {
                OFFSET 8.27202 -0.0477905 -0.4584
                CHANNELS 3 Zrotation Xrotation Yrotation
                JOINT lPinky2
                {
                  OFFSET 1.82734 -0.647385 -0.700984
                  CHANNELS 3 Zrotation Xrotation Yrotation
                  End Site
                  {
                    OFFSET 1.69225 -0.51767 -0.607171
                  }
                }
              }
            }
          }
        }
      }
    }
  }
  JOINT rButtock
  {
    OFFSET -8.77824 4.35084 1.2192
    CHANNELS 3 Zrotation Xrotation Yrotation
    JOINT rThigh
    {
      OFFSET 0 -1.70687 -2.19456
      CHANNELS 3 Zrotation Xrotation Yrotation
      JOINT rShin
      {
        OFFSET 0 -36.8199 0.73152
        CHANNELS 3 Zrotation Xrotation Yrotation
        JOINT rFoot
        {
          OFFSET 0.73152 -45.1104 -5.12064
          CHANNELS 3 Zrotation Xrotation Yrotation
          End Site
          {
            OFFSET -1.1221 -3.69964 12.103
          }
        }
      }
    }
  }
  JOINT lButtock
  {
    OFFSET 8.77824 4.35084 1.2192
    CHANNELS 3 Zrotation Xrotation Yrotation
    JOINT lThigh
    {
      OFFSET 0 -1.70687 -2.19456
      CHANNELS 3 Zrotation Xrotation Yrotation
      JOINT lShin
      {
        OFFSET 0 -36.8199 0.73152
        CHANNELS 3 Zrotation Xrotation Yrotation
        JOINT lFoot
        {
          OFFSET -0.73152 -45.1104 -5.12064
          CHANNELS 3 Zrotation Xrotation Yrotation
          End Site
          {
            OFFSET 1.1221 -3.69964 12.103
          }
        }
      }
    }
  }
}
MOTION
Frames:	4
Frame Time:	0.00833333
72.8449 40.7155 70.4662 4.7085 22.5752 -16.1776 4.26529 60.5838 -21.72 8.53641 -2.63542 -4.39656 -4.14887 21.916 -25.8618 36.9718 -28.2941 -43.1827 -0.0 0.0 0.0 -0.0 0.0 0.0 -1.30475e-14 -1.49142e-14 -7.22209e-14 69.2071 -14.4671 -18.3035 -26.103 -46.0966 95.7118 -0.247703 14.0556 2.01615 -1.06542e-10 1.37235e-09 -7.67222e-10 -1.99569e-10 2.4051e-09 -1.32491e-09 -1.06538e-10 1.37235e-09 -7.67225e-10 7.73091 5.47488 0.417314 -1.06543e-10 1.37235e-09 -7.67226e-10 2.90554 0.965183 0.102902 -1.0654e-10 1.37235e-09 -7.67226e-10 10.2786 0.731801 0.0259123 -1.06546e-10 1.37235e-09 -7.67214e-10 2.22167 -0.733487 -0.20892 -1.32749e-14 -1.49054e-14 -7.23797e-14 -20.5503 -5.37825 -1.71457 27.4641 -28.0297 -64.1001 0.156284 -11.1966 1.59412 -1.5495e-09 -6.32597e-09 1.93681e-09 -2.6925e-09 -1.09954e-08 3.3348e-09 -1.54951e-09 -6.32596e-09 1.93682e-09 -7.73091 5.47488 -0.417314 -1.5495e-09 -6.32597e-09 1.93681e-09 -2.90554 0.965183 -0.102902 -1.5495e-09 -6.32597e-09 1.93681e-09 -10.2786 0.731801 -0.0259123 -1.54949e-09 -6.32596e-09 1.93681e-09 -2.22167 -0.733487 0.20892 -2.03217e-16 0.0 -3.88251e-19 -81.6384 -66.3631 -57.7605 -177.749 60.6075 -177.708 2.81319 -10.3009 -1.29462 2.03217e-16 0.0 3.88251e-19 65.6421 -67.7679 41.4984 8.53053 84.64 -10.4674 -2.34656 4.1492 -17.7027
72.7481 40.5838 70.5191 4.2438 21.9963 -15.9924 4.48967 60.0573 -21.2126 8.3745 -2.8212 -4.25588 -4.24987 21.8888 -25.8492 37.3377 -28.3855 -43.109 -0.0 0.0 0.0 -0.0 0.0 0.0 -8.65277e-14 1.18834e-15 4.70685e-14 69.5426 -13.0987 -16.8105 -26.3738 -45.5336 94.5341 -0.219006 13.2306 1.89332 -7.31444e-10 3.15487e-09 -6.99552e-10 -1.27284e-09 5.47546e-09 -1.20427e-09 -7.31439e-10 3.15487e-09 -6.99555e-10 7.73091 5.47488 0.417314 -7.31445e-10 3.15487e-09 -6.99555e-10 2.90554 0.965183 0.102902 -7.31441e-10 3.15487e-09 -6.99554e-10 10.2786 0.731801 0.0259123 -7.31447e-10 3.15487e-09 -6.99541e-10 2.22167 -0.733487 -0.20892 -8.66909e-14 1.19589e-15 4.6879e-14 -21.2681 -4.93758 -2.02321 27.6042 -28.6169 -65.0301 0.165892 -11.5307 1.64299 -9.86722e-10 -4.37176e-09 -3.84975e-10 -1.69993e-09 -7.51147e-09 -6.71877e-10 -9.86726e-10 -4.37176e-09 -3.84964e-10 -7.73091 5.47488 -0.417314 -9.86722e-10 -4.37176e-09 -3.84975e-10 -2.90554 0.965183 -0.102902 -9.86728e-10 -4.37176e-09 -3.84976e-10 -10.2786 0.731801 -0.0259123 -9.86716e-10 -4.37176e-09 -3.84978e-10 -2.22167 -0.733487 0.20892 -2.03217e-16 0.0 -3.88251e-19 -80.2937 -67.2491 -57.3133 -177.712 61.0915 -177.827 2.58148 -10.8834 -1.80483 2.03217e-16 0.0 3.88251e-19 69.8535 -67.7197 45.0352 13.7675 86.5508 -15.7904 -2.36972 4.55185 -19.1864
72.5343 40.379 70.5573 3.0355 21.0536 -15.8285 4.76525 59.569 -20.7237 8.20602 -3.04144 -4.10736 -4.36756 21.8197 -25.8394 37.7087 -28.4186 -43.058 -0.0 0.0 0.0 -0.0 0.0 0.0 -1.56555e-13 1.19238e-14 1.62553e-13 69.7942 -11.691 -15.2978 -26.6496 -44.8947 93.2451 -0.189405 12.3025 1.75628 -1.33955e-09 4.92448e-09 -7.60969e-10 -2.31801e-09 8.52493e-09 -1.30602e-09 -1.33955e-09 4.92448e-09 -7.60973e-10 7.73091 5.47488 0.417314 -1.33955e-09 4.92448e-09 -7.60972e-10 2.90554 0.965183 0.102902 -1.33955e-09 4.92448e-09 -7.6097e-10 10.2786 0.731801 0.0259123 -1.33956e-09 4.92448e-09 -7.60956e-10 2.22167 -0.733487 -0.20892 -1.56653e-13 1.19299e-14 1.62328e-13 -21.9749 -4.41479 -2.26916 27.733 -29.2039 -65.9702 0.175547 -11.8562 1.69072 -5.91116e-10 -3.31652e-09 -2.60157e-09 -9.97086e-10 -5.58942e-09 -4.49811e-09 -5.91119e-10 -3.31651e-09 -2.60156e-09 -7.73091 5.47488 -0.417314 -5.91115e-10 -3.31651e-09 -2.60156e-09 -2.90554 0.965183 -0.102902 -5.91124e-10 -3.31651e-09 -2.60156e-09 -10.2786 0.731801 -0.0259123 -5.9111e-10 -3.31651e-09 -2.60157e-09 -2.22167 -0.733487 0.20892 -2.03217e-16 0.0 -3.88251e-19 -79.0983 -68.3553 -57.0344 -177.667 61.5932 -177.968 2.40064 -11.2275 -2.14459 2.03217e-16 0.0 3.88251e-19 74.1687 -67.4992 48.6535 36.6185 88.5706 -38.7352 -2.41321 4.87188 -20.6881
72.3335 40.0805 70.5563 2.182 20.1613 -15.5094 4.92788 59.2321 -20.3979 8.0742 -3.27708 -4.00675 -4.42766 21.6977 -25.8472 37.9409 -28.4375 -43.0691 -0.0 0.0 0.0 -0.0 0.0 0.0 -1.83033e-13 9.53933e-15 2.20552e-13 69.9857 -10.2219 -13.8419 -26.9101 -44.2521 91.9464 -0.160385 11.3407 1.6152 -1.49381e-09 5.60484e-09 -1.11638e-09 -2.58321e-09 9.70045e-09 -1.91863e-09 -1.4938e-09 5.60484e-09 -1.11639e-09 7.73091 5.47488 0.417314 -1.49381e-09 5.60484e-09 -1.11638e-09 2.90554 0.965183 0.102902 -1.4938e-09 5.60484e-09 -1.11638e-09 10.2786 0.731801 0.0259123 -1.49381e-09 5.60484e-09 -1.11637e-09 2.22167 -0.733487 -0.20892 -1.8309e-13 9.54399e-15 2.20303e-13 -22.6126 -3.79899 -2.45523 27.8484 -29.7743 -66.8888 0.185232 -12.172 1.73714 -5.15365e-10 -4.02766e-09 -3.65898e-09 -8.56944e-10 -6.77796e-09 -6.32495e-09 -5.15368e-10 -4.02766e-09 -3.65897e-09 -7.73091 5.47488 -0.417314 -5.15365e-10 -4.02765e-09 -3.65897e-09 -2.90554 0.965183 -0.102902 -5.15375e-10 -4.02765e-09 -3.65897e-09 -10.2786 0.731801 -0.0259123 -5.1536e-10 -4.02765e-09 -3.65898e-09 -2.22167 -0.733487 0.20892 -2.03217e-16 0.0 -3.88251e-19 -78.8056 -69.262 -57.1772 -177.631 61.8914 -178.085 2.43317 -11.2079 -1.9482 2.03217e-16 0.0 3.88251e-19 77.3627 -67.2039 51.4661 144.404 88.4766 -146.609 -2.53946 4.94943 -21.8885
